<svg class="svg-icon" fill="#000" style="width: 30px; height: 30px;vertical-align: middle;overflow: hidden;" viewBox="0 0 1024 1024" version="1.1" xmlns="http://www.w3.org/2000/svg"><path d="M384 170.666667a170.666667 170.666667 0 0 0-170.666667 170.666666 170.666667 170.666667 0 0 0 170.666667 170.666667 170.666667 170.666667 0 0 0 170.666667-170.666667 170.666667 170.666667 0 0 0-170.666667-170.666666m0 426.666666c-113.92 0-341.333333 56.746667-341.333333 170.666667v85.333333h472.746666c-2.133333-14.08-3.413333-28.16-3.413333-42.666666 0-64 21.333333-128 60.16-179.2-65.28-22.186667-137.813333-34.133333-188.16-34.133334m384 0a11.093333 11.093333 0 0 0-11.093333 8.96l-8.106667 56.32c-12.8 5.546667-25.173333 12.373333-36.266667 20.053334l-52.906666-21.333334c-4.693333 0-10.24 0-13.226667 5.546667l-42.666667 73.813333c-2.56 4.693333-1.706667 10.24 2.56 13.653334l45.226667 34.986666a178.901333 178.901333 0 0 0 0 42.666667l-45.226667 34.986667a11.093333 11.093333 0 0 0-2.56 13.653333l42.666667 73.813333c2.56 5.546667 8.106667 5.546667 13.226667 5.546667l52.906666-21.333333c11.093333 7.68 23.04 14.933333 36.266667 20.053333l8.106667 56.32c0.853333 5.12 5.12 8.96 11.093333 8.96h85.333333c4.693333 0 9.386667-3.84 10.24-8.96l8.106667-56.32c12.8-5.546667 24.32-12.373333 35.84-20.053333l52.48 21.333333c5.546667 0 11.093333 0 14.08-5.546667l42.666667-73.813333a11.093333 11.093333 0 0 0-2.56-13.653333l-45.653334-34.986667c0.853333-7.253333 1.706667-14.08 1.706667-21.333333 0-7.253333-0.426667-14.08-1.706667-21.333334l45.226667-34.986666a11.093333 11.093333 0 0 0 2.56-13.653334l-42.666667-73.813333c-2.56-5.546667-8.106667-5.546667-13.653333-5.546667l-52.48 21.333334c-11.52-7.68-23.04-14.933333-36.266667-20.053334l-8.106666-56.32A10.069333 10.069333 0 0 0 853.333333 597.333333m-42.666666 149.333334a64 64 0 0 1 64 64 64 64 0 0 1-64 64c-35.84 0-64-28.586667-64-64a64 64 0 0 1 64-64z" fill="" /></svg>